<mxfile host="drawio-plugin" modified="2025-10-05T05:40:46.380Z" agent="Mozilla/5.0 (Windows NT 10.0; Win64; x64) AppleWebKit/537.36 (KHTML, like Gecko) Chrome/122.0.0.0 Safari/537.36" etag="1om7k1icMl76JN1vjL6Y" version="22.1.22" type="embed">
  <diagram id="e3ZoHSzyayAQzzKgrG5k" name="Page-1">
    <mxGraphModel dx="1097" dy="2805" grid="1" gridSize="10" guides="1" tooltips="1" connect="1" arrows="1" fold="1" page="1" pageScale="1" pageWidth="850" pageHeight="1100" math="0" shadow="0">
      <root>
        <mxCell id="0" />
        <mxCell id="1" parent="0" />
        <mxCell id="51" value="" style="rounded=0;whiteSpace=wrap;html=1;fillColor=#dae8fc;strokeColor=#6c8ebf;" vertex="1" parent="1">
          <mxGeometry x="380" y="-1350" width="780" height="570" as="geometry" />
        </mxCell>
        <mxCell id="52" value="&lt;font style=&quot;font-size: 24px;&quot;&gt;Refresh Access Token&lt;/font&gt;" style="text;html=1;strokeColor=none;fillColor=none;align=center;verticalAlign=middle;whiteSpace=wrap;rounded=0;" vertex="1" parent="1">
          <mxGeometry x="670" y="-1360" width="310" height="100" as="geometry" />
        </mxCell>
        <mxCell id="56" value="" style="edgeStyle=orthogonalEdgeStyle;rounded=0;orthogonalLoop=1;jettySize=auto;html=1;entryX=0;entryY=0.5;entryDx=0;entryDy=0;" edge="1" parent="1" source="54" target="57">
          <mxGeometry relative="1" as="geometry">
            <mxPoint x="734.9999999999998" y="-1145" as="targetPoint" />
          </mxGeometry>
        </mxCell>
        <mxCell id="65" value="/&lt;font style=&quot;font-size: 14px;&quot;&gt;refresh&lt;/font&gt;" style="edgeLabel;html=1;align=center;verticalAlign=middle;resizable=0;points=[];" vertex="1" connectable="0" parent="56">
          <mxGeometry x="-0.111" y="1" relative="1" as="geometry">
            <mxPoint as="offset" />
          </mxGeometry>
        </mxCell>
        <mxCell id="54" value="&lt;h1&gt;Client&lt;/h1&gt;&lt;div&gt;&lt;font style=&quot;font-size: 18px;&quot;&gt;Refresh Token&lt;/font&gt;&lt;/div&gt;" style="text;html=1;spacing=5;spacingTop=-20;whiteSpace=wrap;overflow=hidden;rounded=0;fillColor=#f5f5f5;fontColor=#333333;strokeColor=#666666;" vertex="1" parent="1">
          <mxGeometry x="410" y="-1190" width="190" height="90" as="geometry" />
        </mxCell>
        <mxCell id="59" value="" style="edgeStyle=orthogonalEdgeStyle;rounded=0;orthogonalLoop=1;jettySize=auto;html=1;" edge="1" parent="1" source="57" target="58">
          <mxGeometry relative="1" as="geometry" />
        </mxCell>
        <mxCell id="64" value="&lt;font style=&quot;font-size: 14px;&quot;&gt;valid Refresh token&lt;/font&gt;" style="edgeLabel;html=1;align=center;verticalAlign=middle;resizable=0;points=[];" vertex="1" connectable="0" parent="59">
          <mxGeometry x="0.0724" y="-6" relative="1" as="geometry">
            <mxPoint as="offset" />
          </mxGeometry>
        </mxCell>
        <mxCell id="57" value="&lt;h1&gt;Server&lt;/h1&gt;&lt;p&gt;&lt;/p&gt;&lt;ul&gt;&lt;li&gt;&lt;span style=&quot;font-size: 18px;&quot;&gt;Validates Refresh Token&lt;/span&gt;&lt;/li&gt;&lt;/ul&gt;&lt;p&gt;&lt;/p&gt;" style="text;html=1;strokeColor=#666666;fillColor=#f5f5f5;spacing=5;spacingTop=-20;whiteSpace=wrap;overflow=hidden;rounded=0;fontColor=#333333;" vertex="1" parent="1">
          <mxGeometry x="750" y="-1205" width="230" height="115" as="geometry" />
        </mxCell>
        <mxCell id="58" value="&lt;h1&gt;Server&lt;/h1&gt;&lt;p&gt;&lt;/p&gt;&lt;ul&gt;&lt;li&gt;&lt;span style=&quot;font-size: 18px;&quot;&gt;generates new access token&lt;/span&gt;&lt;/li&gt;&lt;/ul&gt;&lt;p&gt;&lt;/p&gt;" style="text;html=1;strokeColor=#666666;fillColor=#f5f5f5;spacing=5;spacingTop=-20;whiteSpace=wrap;overflow=hidden;rounded=0;fontColor=#333333;" vertex="1" parent="1">
          <mxGeometry x="750" y="-980" width="230" height="115" as="geometry" />
        </mxCell>
        <mxCell id="62" style="edgeStyle=orthogonalEdgeStyle;rounded=0;orthogonalLoop=1;jettySize=auto;html=1;exitX=0.5;exitY=0;exitDx=0;exitDy=0;entryX=0.304;entryY=0.006;entryDx=0;entryDy=0;entryPerimeter=0;" edge="1" parent="1" source="57" target="54">
          <mxGeometry relative="1" as="geometry" />
        </mxCell>
        <mxCell id="63" value="&lt;font style=&quot;font-size: 14px;&quot;&gt;invalid refresh token foces login&lt;/font&gt;" style="edgeLabel;html=1;align=center;verticalAlign=middle;resizable=0;points=[];" vertex="1" connectable="0" parent="62">
          <mxGeometry x="-0.0503" y="-1" relative="1" as="geometry">
            <mxPoint as="offset" />
          </mxGeometry>
        </mxCell>
        <mxCell id="66" style="edgeStyle=orthogonalEdgeStyle;rounded=0;orthogonalLoop=1;jettySize=auto;html=1;exitX=0;exitY=0.5;exitDx=0;exitDy=0;entryX=0.211;entryY=0.889;entryDx=0;entryDy=0;entryPerimeter=0;" edge="1" parent="1" source="58" target="54">
          <mxGeometry relative="1" as="geometry" />
        </mxCell>
        <mxCell id="67" value="&lt;font style=&quot;font-size: 14px;&quot;&gt;new access token&lt;/font&gt;" style="edgeLabel;html=1;align=center;verticalAlign=middle;resizable=0;points=[];" vertex="1" connectable="0" parent="66">
          <mxGeometry x="-0.3758" y="-3" relative="1" as="geometry">
            <mxPoint as="offset" />
          </mxGeometry>
        </mxCell>
        <mxCell id="68" value="" style="rounded=0;whiteSpace=wrap;html=1;" vertex="1" parent="1">
          <mxGeometry x="75" y="-440" width="1490" height="310" as="geometry" />
        </mxCell>
        <mxCell id="69" value="" style="rounded=0;whiteSpace=wrap;html=1;" vertex="1" parent="1">
          <mxGeometry x="130" y="-340" width="370" height="150" as="geometry" />
        </mxCell>
        <mxCell id="70" value="" style="edgeStyle=orthogonalEdgeStyle;rounded=0;orthogonalLoop=1;jettySize=auto;html=1;" edge="1" parent="1">
          <mxGeometry relative="1" as="geometry">
            <mxPoint x="475" y="-265.28" as="sourcePoint" />
            <mxPoint x="680" y="-265.28" as="targetPoint" />
          </mxGeometry>
        </mxCell>
        <mxCell id="71" value="&lt;font style=&quot;font-size: 14px;&quot;&gt;/get/users&lt;/font&gt;" style="edgeLabel;html=1;align=center;verticalAlign=middle;resizable=0;points=[];" vertex="1" connectable="0" parent="70">
          <mxGeometry x="-0.0038" relative="1" as="geometry">
            <mxPoint as="offset" />
          </mxGeometry>
        </mxCell>
        <mxCell id="72" value="&lt;h1&gt;&lt;span style=&quot;font-size: 48px;&quot;&gt;Client&lt;/span&gt;&lt;/h1&gt;&lt;p&gt;&lt;/p&gt;&lt;ol&gt;&lt;li&gt;&lt;span style=&quot;font-size: 24px;&quot;&gt;Access Token&lt;/span&gt;&lt;/li&gt;&lt;/ol&gt;&lt;p&gt;&lt;/p&gt;" style="text;html=1;strokeColor=none;fillColor=none;spacing=5;spacingTop=-20;whiteSpace=wrap;overflow=hidden;rounded=0;" vertex="1" parent="1">
          <mxGeometry x="150" y="-330" width="330" height="130" as="geometry" />
        </mxCell>
        <mxCell id="73" value="" style="whiteSpace=wrap;html=1;" vertex="1" parent="1">
          <mxGeometry x="680" y="-340" width="450" height="140" as="geometry" />
        </mxCell>
        <mxCell id="74" style="edgeStyle=orthogonalEdgeStyle;rounded=0;orthogonalLoop=1;jettySize=auto;html=1;exitX=0.5;exitY=1;exitDx=0;exitDy=0;entryX=0.5;entryY=1;entryDx=0;entryDy=0;" edge="1" parent="1" source="76" target="69">
          <mxGeometry relative="1" as="geometry" />
        </mxCell>
        <mxCell id="75" value="&lt;font style=&quot;font-size: 14px;&quot;&gt;Invalid Token&lt;/font&gt;" style="edgeLabel;html=1;align=center;verticalAlign=middle;resizable=0;points=[];" vertex="1" connectable="0" parent="74">
          <mxGeometry x="0.0178" y="-1" relative="1" as="geometry">
            <mxPoint as="offset" />
          </mxGeometry>
        </mxCell>
        <mxCell id="76" value="&lt;h1&gt;&lt;span style=&quot;font-size: 48px;&quot;&gt;Server&lt;/span&gt;&lt;/h1&gt;&lt;div&gt;&lt;ol&gt;&lt;li&gt;&lt;font size=&quot;3&quot;&gt;Validate token&lt;/font&gt;&lt;/li&gt;&lt;li&gt;&lt;font size=&quot;3&quot;&gt;response (Users if valid token)&lt;/font&gt;&lt;/li&gt;&lt;li&gt;&lt;font size=&quot;3&quot;&gt;for Invalid Token: 401&lt;/font&gt;&lt;/li&gt;&lt;/ol&gt;&lt;/div&gt;&lt;p&gt;&lt;/p&gt;" style="text;html=1;strokeColor=none;fillColor=none;spacing=5;spacingTop=-20;whiteSpace=wrap;overflow=hidden;rounded=0;" vertex="1" parent="1">
          <mxGeometry x="700" y="-340" width="330" height="140" as="geometry" />
        </mxCell>
        <mxCell id="77" value="&lt;span style=&quot;font-size: 36px;&quot;&gt;Get Users&lt;/span&gt;" style="text;html=1;strokeColor=none;fillColor=none;align=center;verticalAlign=middle;whiteSpace=wrap;rounded=0;" vertex="1" parent="1">
          <mxGeometry x="630" y="-440" width="380" height="80" as="geometry" />
        </mxCell>
        <mxCell id="78" value="" style="shape=cylinder3;whiteSpace=wrap;html=1;boundedLbl=1;backgroundOutline=1;size=15;fillColor=#4E87C2;" vertex="1" parent="1">
          <mxGeometry x="1285" y="-380" width="185" height="217" as="geometry" />
        </mxCell>
        <mxCell id="79" value="&lt;h1&gt;DB&lt;/h1&gt;&lt;p&gt;Users.&lt;/p&gt;" style="text;html=1;strokeColor=none;fillColor=none;spacing=5;spacingTop=-20;whiteSpace=wrap;overflow=hidden;rounded=0;" vertex="1" parent="1">
          <mxGeometry x="1290" y="-350" width="150" height="140" as="geometry" />
        </mxCell>
        <mxCell id="80" value="" style="endArrow=classic;startArrow=classic;html=1;rounded=0;" edge="1" parent="1">
          <mxGeometry width="50" height="50" relative="1" as="geometry">
            <mxPoint x="1040" y="-240" as="sourcePoint" />
            <mxPoint x="1280" y="-240" as="targetPoint" />
          </mxGeometry>
        </mxCell>
        <mxCell id="81" value="Get All Users" style="edgeLabel;html=1;align=center;verticalAlign=middle;resizable=0;points=[];" vertex="1" connectable="0" parent="80">
          <mxGeometry x="-0.0009" y="-1" relative="1" as="geometry">
            <mxPoint as="offset" />
          </mxGeometry>
        </mxCell>
        <mxCell id="82" value="" style="rounded=0;whiteSpace=wrap;html=1;" vertex="1" parent="1">
          <mxGeometry x="50" y="-20" width="1390" height="810" as="geometry" />
        </mxCell>
        <mxCell id="98" value="&lt;span style=&quot;font-size: 51px;&quot;&gt;user Sign Up&lt;/span&gt;" style="text;html=1;strokeColor=none;fillColor=none;align=center;verticalAlign=middle;whiteSpace=wrap;rounded=0;" vertex="1" parent="1">
          <mxGeometry x="500" y="10" width="335" height="90" as="geometry" />
        </mxCell>
        <mxCell id="99" value="" style="rounded=0;whiteSpace=wrap;html=1;" vertex="1" parent="1">
          <mxGeometry x="310" y="140" width="340" height="290" as="geometry" />
        </mxCell>
        <mxCell id="100" value="&lt;h1&gt;User Sign In DTO&lt;/h1&gt;&lt;p style=&quot;font-size: 17px;&quot;&gt;&lt;/p&gt;&lt;div&gt;&lt;ol style=&quot;font-size: 18px;&quot;&gt;&lt;li&gt;Name&lt;/li&gt;&lt;li&gt;Username&lt;/li&gt;&lt;li&gt;Email&lt;/li&gt;&lt;li&gt;Password&lt;/li&gt;&lt;/ol&gt;&lt;/div&gt;&lt;p&gt;&lt;/p&gt;" style="text;html=1;strokeColor=none;fillColor=none;spacing=5;spacingTop=-20;whiteSpace=wrap;overflow=hidden;rounded=0;" vertex="1" parent="1">
          <mxGeometry x="330" y="180" width="320" height="260" as="geometry" />
        </mxCell>
        <mxCell id="101" value="" style="whiteSpace=wrap;html=1;aspect=fixed;" vertex="1" parent="1">
          <mxGeometry x="110" y="530" width="220" height="220" as="geometry" />
        </mxCell>
        <mxCell id="102" value="&lt;h1&gt;Client&lt;/h1&gt;&lt;p&gt;&lt;/p&gt;&lt;ul&gt;&lt;li&gt;Name&lt;/li&gt;&lt;li&gt;Username&lt;/li&gt;&lt;li&gt;Email (Verified)&lt;/li&gt;&lt;li&gt;Password&lt;/li&gt;&lt;/ul&gt;&lt;p&gt;&lt;/p&gt;" style="text;html=1;spacing=5;spacingTop=-20;whiteSpace=wrap;overflow=hidden;rounded=0;" vertex="1" parent="1">
          <mxGeometry x="120" y="540" width="200" height="190" as="geometry" />
        </mxCell>
        <mxCell id="103" value="" style="endArrow=classic;html=1;rounded=0;" edge="1" parent="1">
          <mxGeometry width="50" height="50" relative="1" as="geometry">
            <mxPoint x="310" y="650" as="sourcePoint" />
            <mxPoint x="500" y="650" as="targetPoint" />
          </mxGeometry>
        </mxCell>
        <mxCell id="104" value="User DTO" style="edgeLabel;html=1;align=center;verticalAlign=middle;resizable=0;points=[];" vertex="1" connectable="0" parent="103">
          <mxGeometry x="0.1283" y="-3" relative="1" as="geometry">
            <mxPoint as="offset" />
          </mxGeometry>
        </mxCell>
        <mxCell id="105" value="&lt;h1&gt;Server&lt;/h1&gt;&lt;p&gt;&lt;/p&gt;&lt;ul&gt;&lt;li&gt;&lt;font color=&quot;#9e7609&quot;&gt;Checks Email is Verified or Not&lt;/font&gt;&lt;/li&gt;&lt;li&gt;&lt;span style=&quot;background-color: initial;&quot;&gt;if Not{&lt;/span&gt;&lt;/li&gt;&lt;li&gt;return (Email not verified)&lt;/li&gt;&lt;li&gt;&lt;span style=&quot;background-color: initial;&quot;&gt;}&lt;/span&gt;&lt;br&gt;&lt;/li&gt;&lt;/ul&gt;&lt;div&gt;&lt;br&gt;&lt;/div&gt;&lt;ul&gt;&lt;li&gt;if yes{&lt;/li&gt;&lt;li&gt;save the user&lt;/li&gt;&lt;li&gt;}&lt;/li&gt;&lt;/ul&gt;&lt;p&gt;&lt;/p&gt;" style="text;html=1;spacing=5;spacingTop=-20;whiteSpace=wrap;overflow=hidden;rounded=0;fillColor=#f5f5f5;fontColor=#333333;strokeColor=#2f26ab;strokeWidth=2;" vertex="1" parent="1">
          <mxGeometry x="500" y="520" width="260" height="240" as="geometry" />
        </mxCell>
        <mxCell id="106" value="" style="shape=cylinder3;whiteSpace=wrap;html=1;boundedLbl=1;backgroundOutline=1;size=15;fillColor=#dae8fc;strokeColor=#6c8ebf;" vertex="1" parent="1">
          <mxGeometry x="1070" y="520" width="240" height="240" as="geometry" />
        </mxCell>
        <mxCell id="107" value="&lt;h1&gt;&lt;span style=&quot;background-color: initial;&quot;&gt;Database&lt;/span&gt;&lt;/h1&gt;&lt;h1&gt;&lt;ol style=&quot;font-size: 18px;&quot;&gt;&lt;li&gt;&lt;span style=&quot;font-weight: normal;&quot;&gt;Verified Emails&lt;/span&gt;&lt;/li&gt;&lt;li&gt;&lt;span style=&quot;font-weight: normal;&quot;&gt;Users&lt;/span&gt;&lt;/li&gt;&lt;/ol&gt;&lt;/h1&gt;" style="text;html=1;strokeColor=none;fillColor=none;spacing=5;spacingTop=-20;whiteSpace=wrap;overflow=hidden;rounded=0;" vertex="1" parent="1">
          <mxGeometry x="1080" y="560" width="220" height="180" as="geometry" />
        </mxCell>
        <mxCell id="108" value="" style="endArrow=classic;html=1;rounded=0;" edge="1" parent="1">
          <mxGeometry width="50" height="50" relative="1" as="geometry">
            <mxPoint x="720" y="580" as="sourcePoint" />
            <mxPoint x="1060" y="580" as="targetPoint" />
          </mxGeometry>
        </mxCell>
        <mxCell id="109" value="Email" style="edgeLabel;html=1;align=center;verticalAlign=middle;resizable=0;points=[];" vertex="1" connectable="0" parent="108">
          <mxGeometry x="0.1465" relative="1" as="geometry">
            <mxPoint x="-15" as="offset" />
          </mxGeometry>
        </mxCell>
        <mxCell id="110" value="" style="endArrow=classic;html=1;rounded=0;exitX=0.005;exitY=0.335;exitDx=0;exitDy=0;exitPerimeter=0;" edge="1" parent="1" source="106">
          <mxGeometry width="50" height="50" relative="1" as="geometry">
            <mxPoint x="1070" y="598" as="sourcePoint" />
            <mxPoint x="770" y="599.9999999999999" as="targetPoint" />
          </mxGeometry>
        </mxCell>
        <mxCell id="111" value="Verified Email if present" style="edgeLabel;html=1;align=center;verticalAlign=middle;resizable=0;points=[];" vertex="1" connectable="0" parent="110">
          <mxGeometry x="-0.1285" y="1" relative="1" as="geometry">
            <mxPoint x="-20" as="offset" />
          </mxGeometry>
        </mxCell>
        <mxCell id="112" value="" style="endArrow=classic;html=1;rounded=0;" edge="1" parent="1">
          <mxGeometry width="50" height="50" relative="1" as="geometry">
            <mxPoint x="700" y="690" as="sourcePoint" />
            <mxPoint x="1061.3793103448277" y="690" as="targetPoint" />
          </mxGeometry>
        </mxCell>
        <mxCell id="113" value="User Details" style="edgeLabel;html=1;align=center;verticalAlign=middle;resizable=0;points=[];" vertex="1" connectable="0" parent="112">
          <mxGeometry x="0.2606" relative="1" as="geometry">
            <mxPoint x="-28" as="offset" />
          </mxGeometry>
        </mxCell>
      </root>
    </mxGraphModel>
  </diagram>
</mxfile>
